<svg width="100" height="76" viewBox="0 0 100 76" fill="none" xmlns="http://www.w3.org/2000/svg">
<path d="M97.9106 11.8674C96.7605 7.19622 93.3723 3.51744 89.0691 2.26896C81.2713 0 50 0 50 0C50 0 18.7292 0 10.9309 2.26896C6.62772 3.51744 3.23865 7.19622 2.08935 11.8674C0 20.3342 0 38 0 38C0 38 0 55.6649 2.08935 64.1326C3.23865 68.8042 6.62772 72.4821 10.9304 73.732C18.7287 76 49.9996 76 49.9996 76C49.9996 76 81.2708 76 89.0687 73.732C93.3719 72.4826 96.7601 68.8042 97.9102 64.133C100 55.6653 100 38.0005 100 38.0005C100 38.0005 100 20.3342 97.9106 11.8674Z" fill="#2F80ED"/>
<path d="M97.9106 11.8674C96.7605 7.19622 93.3723 3.51744 89.0691 2.26896C81.2713 0 50 0 50 0C50 0 18.7292 0 10.9309 2.26896C6.62772 3.51744 3.23865 7.19622 2.08935 11.8674C0 20.3342 0 38 0 38C0 38 0 55.6649 2.08935 64.1326C3.23865 68.8042 6.62772 72.4821 10.9304 73.732C18.7287 76 49.9996 76 49.9996 76C49.9996 76 81.2708 76 89.0687 73.732C93.3719 72.4826 96.7601 68.8042 97.9102 64.133C100 55.6653 100 38.0005 100 38.0005C100 38.0005 100 20.3342 97.9106 11.8674Z" fill="#2F80ED"/>
<ellipse cx="35.9603" cy="28.2727" rx="7.97784" ry="7.27273" fill="#F2F2F2"/>
<ellipse cx="63.8841" cy="28.2727" rx="7.97784" ry="7.27273" fill="#F2F2F2"/>
<path d="M32.6738 50.9774C35.7606 48.9301 39.3052 47.5294 43.0545 46.8754C46.8037 46.2213 50.6652 46.33 54.363 47.1937C58.0609 48.0574 61.5039 49.6548 64.4462 51.8718C67.3886 54.0888 69.7576 56.8707 71.3842 60.0189L65.8665 62.3881C64.6226 59.9804 62.8108 57.8529 60.5606 56.1574C58.3104 54.4619 55.6772 53.2403 52.8492 52.5797C50.0212 51.9192 47.0681 51.8361 44.2008 52.3363C41.3335 52.8365 38.6227 53.9077 36.262 55.4734L32.6738 50.9774Z" fill="#F2F2F2"/>
<path d="M32.6738 50.9774C35.7606 48.9301 39.3052 47.5294 43.0545 46.8754C46.8037 46.2213 50.6652 46.33 54.363 47.1937C58.0609 48.0574 61.5039 49.6548 64.4462 51.8718C67.3886 54.0888 69.7576 56.8707 71.3842 60.0189L65.8665 62.3881C64.6226 59.9804 62.8108 57.8529 60.5606 56.1574C58.3104 54.4619 55.6772 53.2403 52.8492 52.5797C50.0212 51.9192 47.0681 51.8361 44.2008 52.3363C41.3335 52.8365 38.6227 53.9077 36.262 55.4734L32.6738 50.9774Z" fill="#F2F2F2"/>
</svg>
