<svg width="758" height="534" viewBox="0 0 758 534" fill="none" xmlns="http://www.w3.org/2000/svg">
<path d="M741.676 83.6141C732.97 50.8334 707.321 25.0172 674.747 16.2559C615.718 0.333252 378.998 0.333252 378.998 0.333252C378.998 0.333252 142.282 0.333252 83.2492 16.2559C50.675 25.0172 25.0201 50.8334 16.3201 83.6141C0.503906 143.03 0.503906 267.002 0.503906 267.002C0.503906 267.002 0.503906 390.966 16.3201 450.389C25.0201 483.173 50.675 508.983 83.246 517.754C142.278 533.67 378.995 533.67 378.995 533.67C378.995 533.67 615.715 533.67 674.744 517.754C707.318 508.986 732.967 483.173 741.673 450.392C757.492 390.97 757.492 267.005 757.492 267.005C757.492 267.005 757.492 143.034 741.673 83.6173" fill="#2F80ED"/>
<path d="M301.579 379.557L499.428 267.008L301.579 154.447V379.557Z" fill="white"/>
</svg>
